<?xml version="1.0" encoding="utf-8"?>
<!-- Generator: Adobe Illustrator 19.2.1, SVG Export Plug-In . SVG Version: 6.00 Build 0)  -->
<svg version="1.1" id="Layer_1" xmlns="http://www.w3.org/2000/svg" xmlns:xlink="http://www.w3.org/1999/xlink" x="0px" y="0px"
     viewBox="0 0 120 120" style="enable-background:new 0 0 120 120;" xml:space="preserve">
<style type="text/css">
    .st0{fill:#E84D38;}
    .st1{fill:#FFFFFF;}
</style>
<g>
    <path id="Shape" class="st0" d="M120,108c0,6.6-5.4,12-12,12H12c-6.6,0-12-5.4-12-12V12C0,5.4,5.4,0,12,0h96c6.6,0,12,5.4,12,12
        V108L120,108z"/>
    <g>
        <g>
            <path class="st1" d="M60,19.5c-22.3,0-40.5,18.2-40.5,40.5s18.2,40.5,40.5,40.5s40.5-18.2,40.5-40.5S82.3,19.5,60,19.5z
                 M81.9,72.9h-8.6v8.8c-3.9,2.4-8.4,3.8-13.3,3.8C46,85.4,34.6,74,34.6,60C34.6,46,46,34.6,60,34.6C74,34.6,85.4,46,85.4,60
                C85.4,64.7,84.2,69.1,81.9,72.9z"/>
            <polygon class="st1" points="57,49.3 48.4,49.3 48.4,53.3 52.1,53.3 52.1,66.2 49.7,66.2 49.7,70.6 59.1,70.6 59.1,66.2 57,66.2 
                            "/>
            <polygon class="st1" points="69.5,49.3 60.8,49.3 60.8,53.3 64.6,53.3 64.6,66.2 62.2,66.2 62.2,70.6 71.6,70.6 71.6,66.2 
                69.5,66.2           "/>
        </g>
        <polygon id="XMLID_35_" class="st1" points="59.1,66.2 59.1,70.6 49.7,70.6 49.7,66.2 52.1,66.2 52.1,53.3 48.4,53.3 48.4,49.3 
            57,49.3 57,66.2         "/>
        <polygon id="XMLID_34_" class="st1" points="71.6,66.2 71.6,70.6 62.2,70.6 62.2,66.2 64.6,66.2 64.6,53.3 60.8,53.3 60.8,49.3 
            69.5,49.3 69.5,66.2         "/>
    </g>
</g>
</svg>